<?xml version="1.0" encoding="utf-8"?>
<!-- Generator: Adobe Illustrator 24.0.0, SVG Export Plug-In . SVG Version: 6.00 Build 0)  -->
<svg version="1.1" id="Layer_1" xmlns="http://www.w3.org/2000/svg" xmlns:xlink="http://www.w3.org/1999/xlink" x="0px" y="0px"
	 viewBox="0 0 512 512" style="enable-background:new 0 0 512 512;" xml:space="preserve">
<style type="text/css">
	.st0{fill:#ED1C24;}
	.st1{fill:#F15A24;}
</style>
<g>
	<g>
		<path class="st0" d="M274.4,240.5c-2,3.9-5.4,6.8-8.3,10.1c-1.4,1.6-2.7,3.3-3.8,5.1c-1,1.7-1.7,2.6-3.7,2.9
			c-6.9,1.1-13.9,1.2-20.8,1.2c-15.2,0.1-30.6,0.1-45.4-3c-15.4-3.3-26.9-18.1-26.5-33.8c0.3-12.4,8-24.3,19.1-29.6
			c-3.8,4.9-7.3,10.7-7,17c0.4,6.4,5.3,12.4,11.6,13.9c6.3,1.5,13.4-1.5,16.6-7c4.8-8.2,1.1-18.7-3.7-26.9
			c-4.6-7.9-10-15.3-16.2-22.1c2-0.2,3.7,1.2,5.2,2.6c8.9,8.4,17.8,16.9,26.7,25.3c2.5,2.4,5.2,5.2,5.3,8.6
			c-3.5-11.7-0.2-25.2,8.3-33.9c-1.6,2.7-3.2,5.6-3,8.7c0.2,3.1,3.3,6.2,6.2,5.2c2.8-0.9,3.6-4.5,3.8-7.5
			c0.9-14.3-1.7-28.8-7.3-41.9c11.3,9.4,13.6,25.5,14.9,40.1c1.5,16,2.1,33.9-8.1,46.3c3.3,3.1,8.9,0,10.9-4s2.2-8.9,4.6-12.7
			c0.9,6.8,4,13.2,8.6,18.1c4.1-10.5,0.8-23.4-7.9-30.6c5.9-1.1,11.9,2.8,15.2,7.8s4.4,11.2,5.5,17.1
			C276.8,225.3,278,233.6,274.4,240.5z"/>
		<g>
			<path class="st0" d="M273.1,239.7c-2.8,5.1-7.6,8.7-10.9,13.4c-0.7,1-1.2,2.2-2,3.1c-0.8,0.9-2.1,1-3.2,1.2
				c-3.3,0.5-6.6,0.7-10,0.8c-6.5,0.2-13,0.2-19.6,0.2c-6.5,0-13-0.2-19.4-0.8c-6.1-0.5-12.5-1.1-18.3-3c-4.5-1.5-8.7-4.1-12.1-7.4
				c-6.8-6.6-10.8-16.1-10.1-25.6c0.8-11.4,8.1-21.9,18.3-26.8c-0.7-0.7-1.4-1.4-2.1-2.1c-4.8,6.2-9.2,14.3-6.2,22.3
				c2.5,6.6,8.9,11.5,16.1,11.2c7.2-0.3,13.6-5.2,15.6-12.2c2.3-7.8-0.9-16.2-4.6-23c-4.7-8.6-10.6-16.6-17.2-23.8
				c-0.4,0.9-0.7,1.7-1.1,2.6c2-0.1,3.5,1.6,4.8,2.9c1.7,1.6,3.4,3.2,5,4.8c3.2,3.1,6.5,6.2,9.7,9.2c3.2,3.1,6.5,6.2,9.7,9.2
				c2.5,2.4,6.1,5.2,6.3,8.9c1-0.1,2-0.3,2.9-0.4c-3.3-11.3-0.2-24,7.9-32.5c-0.8-0.6-1.6-1.2-2.4-1.8c-2.4,4.1-4.9,9.3-1.6,13.7
				c1.3,1.7,3.3,2.9,5.5,2.7c2-0.2,3.7-1.5,4.6-3.3c0.9-1.8,1.2-3.8,1.4-5.8c0.2-2.8,0.2-5.6,0.1-8.4c-0.2-5.5-0.9-11.1-2-16.5
				c-1.3-6.1-3.2-12-5.7-17.7c-0.8,0.6-1.6,1.2-2.4,1.8c8.9,7.5,12,19.3,13.5,30.4c0.8,5.9,1.3,11.8,1.6,17.7
				c0.3,6,0.3,12.2-0.7,18.1c-1.1,6.5-3.4,12.9-7.6,18.1c-0.5,0.6-0.7,1.5,0,2.1c3.7,3.3,8.9,1.3,11.8-2.1
				c3.6-4.2,3.3-10.3,6.2-14.9c-0.9-0.1-1.8-0.2-2.7-0.4c1,7,4.2,13.6,9,18.8c0.8,0.9,2.1,0.3,2.5-0.7c4.2-11,0.8-24.4-8.2-32
				c-0.2,0.8-0.4,1.7-0.7,2.5c7.2-1.2,13,5.1,15.6,11.1c1.5,3.5,2.2,7.3,2.9,11.1c0.7,3.7,1.4,7.4,1.6,11.1
				C275.4,231.6,275,235.9,273.1,239.7c-0.9,1.7,1.7,3.2,2.6,1.5c3.9-7.7,2.5-16.5,1-24.6c-1.4-8-3.4-16.7-10.2-22
				c-3.5-2.7-7.7-4.1-12.1-3.4c-1.1,0.2-1.5,1.8-0.7,2.5c8.3,7,11.3,19,7.5,29.1c0.8-0.2,1.7-0.4,2.5-0.7
				c-4.5-4.8-7.4-10.9-8.3-17.5c-0.2-1.4-2.1-1.3-2.7-0.4c-2.5,4-2.6,8.9-4.8,13c-1.4,2.5-5.6,5.9-8.4,3.4c0,0.7,0,1.4,0,2.1
				c8.1-10,9.7-23.1,9.3-35.5c-0.2-6.2-0.7-12.4-1.5-18.6c-0.7-6-1.8-12-3.8-17.8c-2.2-6.3-5.7-12.2-10.9-16.6
				c-1.4-1.1-3,0.3-2.4,1.8c3.6,8.5,6,17.6,6.9,26.8c0.3,2.6,2.3,23.1-4.2,20.3c-1.8-0.8-2.7-2.9-2.6-4.8c0.1-2.5,1.5-4.8,2.8-6.9
				c0.8-1.5-1.2-3.1-2.4-1.8c-8.8,9.3-12.2,23.1-8.6,35.4c0.5,1.6,3,1.3,2.9-0.4c-0.2-4.2-3.2-7.3-6.1-10
				c-3.6-3.4-7.2-6.8-10.8-10.3c-3.6-3.4-7.2-6.8-10.8-10.3c-1.8-1.7-3.5-3.4-5.3-5c-1.6-1.4-3.4-2.7-5.6-2.5
				c-1.3,0.1-2,1.6-1.1,2.6c5.3,5.8,10,12,14.1,18.7c3.7,6.1,7.4,12.9,7.5,20.2c0.1,6.6-3.6,12.5-10.1,14.4
				c-6.1,1.8-12.4-1-15.5-6.5c-4.3-7.6,0.3-15.8,5-21.9c1-1.3-0.9-2.6-2.1-2.1c-9.7,4.7-16.9,14.1-19.1,24.6
				c-2.2,10.3,0.7,21,7.3,29.2c3.2,4,7.3,7.4,11.9,9.7c5.3,2.6,11.2,3.5,17.1,4.3c13.8,1.8,27.9,1.7,41.8,1.4
				c4-0.1,7.9-0.2,11.9-0.7c3.2-0.4,6.2-0.5,8.1-3.3c0.9-1.3,1.7-2.8,2.7-4.1c1-1.3,2.2-2.6,3.4-3.8c2.4-2.5,4.8-5.1,6.5-8.2
				C276.6,239.5,274,238,273.1,239.7z"/>
		</g>
	</g>
	<g>
		<path class="st1" d="M213.7,163.4c-1-5.2,1.9-10.9,6.7-13.1c-4.4,6.7-3,16.5,3.1,21.7c-0.4,1-1.9,0.8-2.8,0.3
			c-2.9-1.5-5.8-3.2-8.4-5.1c-1.1-0.8-2.2-1.7-2.6-3s0.1-2.9,1.3-3.3"/>
		<g>
			<path class="st0" d="M215.2,163c-0.8-4.6,1.8-9.4,6-11.4c-0.7-0.7-1.4-1.4-2.1-2.1c-4.7,7.3-3.3,17.8,3.3,23.5
				c-0.1-0.6-0.2-1.2-0.2-1.8c0,0.2,0,0.1,0.2,0c-0.1,0-0.2,0-0.3,0c-0.2-0.1-0.5-0.1-0.7-0.2c-0.7-0.3-1.3-0.7-2-1
				c-1.4-0.8-2.9-1.6-4.2-2.5c-1.2-0.8-2.5-1.6-3.5-2.7c-0.4-0.4-1.4-2.1-0.4-2.5c1.8-0.7,1-3.6-0.8-2.9c-2,0.7-3,2.8-2.5,4.9
				c0.6,2.3,2.8,3.7,4.7,5c2.1,1.5,4.3,2.8,6.6,3.9c1.7,0.8,4.4,1.6,5.4-0.6c0.3-0.6,0.3-1.4-0.2-1.8c-5.6-4.9-6.8-13.7-2.8-19.9
				c0.9-1.4-0.8-2.7-2.1-2.1c-5.5,2.6-8.5,8.9-7.4,14.8C212.6,165.7,215.5,164.9,215.2,163L215.2,163z"/>
		</g>
	</g>
	<g>
		<path class="st1" d="M170.2,182.5c4-0.8,6-5.4,6.5-9.5c0.5-3.8,0.3-7.7-0.5-11.4c0.8,3.6,1.4,7.3,1.9,11c0.3,2.9,0.5,5.9-0.8,8.5
			c-1.3,2.6-4.7,4.3-7.2,2.8"/>
		<g>
			<path class="st0" d="M170.6,183.9c3.9-0.8,6.1-4.5,7.1-8c1.3-4.7,1-10,0-14.7c-1,0.3-1.9,0.5-2.9,0.8c1,4.6,2.1,9.5,2,14.2
				c0,1.9-0.4,4-1.8,5.4c-1.1,1.1-2.8,1.8-4.2,1c-1.7-0.9-3.2,1.7-1.5,2.6c4.7,2.5,9.5-1.8,10.3-6.4c0.5-2.8,0.1-5.6-0.3-8.3
				c-0.4-3.1-1-6.2-1.6-9.3c-0.4-1.9-3.3-1.1-2.9,0.8c0.8,4,1.1,8.5,0.1,12.5c-0.7,2.8-2.1,5.9-5.1,6.5
				C168,181.4,168.8,184.3,170.6,183.9L170.6,183.9z"/>
		</g>
	</g>
	<g>
		<path class="st1" d="M192.6,247.4c-3.9-2.1-7.9-4.3-10.9-7.5s-5-7.8-4-12.1c4.1,1.8,6.8,5.8,10.5,8.2c7.6,5,19.4,1.2,22.7-7.3
			c1.8-4.7,1.3-10,2.7-14.8c0.2,2.6,0.5,5.3,1.7,7.6c1.3,2.3,3.8,4.1,6.4,3.7c3.2-0.5,4.9-4.1,5.3-7.3c0.3-3.2-0.2-6.5,0.7-9.6
			c1.3,1.1,2.7,2.3,4,3.4c2.6-2.7,4.3-6.3,4.7-10c1.1,7.3-3,14.3-5.8,21.1c-1.8,4.3-2.7,10.1,1.1,12.9c2.8,2.1,6.9,1.3,10.1-0.5
			c3.1-1.7,5.8-4.2,9.2-5.2c-0.4,3.3-0.9,6.6-1.3,9.9c3.9-1.1,7.6-3,10.7-5.6c-0.3,7.2-5.8,13.5-12.4,16.5s-14.1,3.2-21.3,2.8
			c-11.5-0.7-23-2.9-33.9-6.5"/>
		<g>
			<path class="st1" d="M193.4,246.1c-6.5-3.5-16.1-9-14.2-18c-0.7,0.3-1.5,0.6-2.2,0.9c3.8,1.7,6.3,5.1,9.6,7.6
				c2.8,2,6.1,3.1,9.5,3.1c6.6,0,13.4-3.8,16.1-9.9c2.1-4.9,1.6-10.4,2.9-15.4c-1-0.1-2-0.3-2.9-0.4c0.3,3.5,0.7,7.2,3,10
				c2,2.4,5.3,3.7,8.3,2.4c2.6-1.1,4.2-3.9,4.8-6.6c0.8-3.6-0.1-7.4,0.9-11c-0.8,0.2-1.7,0.4-2.5,0.7c1.3,1.1,2.7,2.3,4,3.4
				c0.6,0.5,1.5,0.6,2.1,0c2.9-3.1,4.6-6.9,5.2-11.1c-1,0-2,0-3,0c0.6,4.4-0.6,8.6-2.2,12.6c-1.5,3.8-3.6,7.4-4.5,11.4
				c-0.8,3.2-0.9,6.9,1.1,9.7c2.3,3.2,6.5,3.7,10,2.6c4.5-1.4,7.7-5,12.1-6.5c-0.6-0.5-1.3-1-1.9-1.4c-0.4,3.3-0.9,6.6-1.3,9.9
				c-0.1,1,1.1,1.7,1.9,1.4c4.2-1.2,8-3.2,11.3-6c-0.9-0.4-1.7-0.7-2.6-1.1c-0.5,9.1-8.9,15.1-17.1,17c-4.9,1.1-10,1.1-15.1,0.8
				c-5.3-0.3-10.6-0.9-15.8-1.9c-6-1.1-11.9-2.6-17.7-4.6c-1.8-0.6-2.6,2.3-0.8,2.9c11,3.7,22.5,5.9,34.1,6.6
				c10.1,0.6,21.2-0.2,28.9-7.4c3.7-3.5,6.3-8.2,6.5-13.3c0.1-1.4-1.6-1.8-2.6-1.1c-2.9,2.4-6.3,4.2-10,5.3c0.6,0.5,1.3,1,1.9,1.4
				c0.4-3.3,0.9-6.6,1.3-9.9c0.1-1-1.1-1.7-1.9-1.4c-3.6,1.2-6.4,3.7-9.8,5.5c-2.7,1.4-6.9,2.5-9.1-0.4c-1.8-2.4-1.2-5.9-0.3-8.6
				c1.1-3.6,3-7,4.3-10.5c1.6-4.1,2.8-8.5,2.2-13c-0.3-1.9-2.7-1.9-3,0c-0.4,3.4-2,6.5-4.3,9c0.7,0,1.4,0,2.1,0
				c-1.3-1.1-2.7-2.3-4-3.4c-0.8-0.7-2.2-0.5-2.5,0.7c-0.8,2.9-0.5,5.9-0.6,8.9c-0.1,2.2-0.7,4.6-2.4,6.1c-1.8,1.6-4.2,0.8-5.7-0.9
				c-1.9-2.2-2.1-5.4-2.4-8.1c-0.1-1.6-2.5-2.1-2.9-0.4c-1.1,4.2-0.9,8.5-2,12.7c-0.8,3.1-2.5,5.8-5.2,7.6c-4.9,3.4-11.7,4-16.6,0.4
				c-3.4-2.5-5.9-6-9.9-7.8c-0.8-0.4-2-0.1-2.2,0.9c-1,4.7,0.8,9.2,3.7,12.8c3.1,3.8,7.6,6.2,11.9,8.5
				C193.6,249.6,195.1,247.1,193.4,246.1L193.4,246.1z"/>
		</g>
	</g>
</g>
</svg>
