<?xml version="1.0" encoding="utf-8"?>
<!-- Generator: Adobe Illustrator 24.0.0, SVG Export Plug-In . SVG Version: 6.00 Build 0)  -->
<svg version="1.1" id="Layer_1" xmlns="http://www.w3.org/2000/svg" xmlns:xlink="http://www.w3.org/1999/xlink" x="0px" y="0px"
	 viewBox="0 0 512 512" style="enable-background:new 0 0 512 512;" xml:space="preserve">
<style type="text/css">
	.st0{fill:#999999;stroke:#666666;stroke-miterlimit:10;}
	.st1{fill:#808080;stroke:#4D4D4D;stroke-miterlimit:10;}
	.st2{fill:#CCCCCC;stroke:#B3B3B3;stroke-miterlimit:10;}
	.st3{fill:#29ABE2;stroke:#2E3192;stroke-miterlimit:10;}
	.st4{fill:#E6E6E6;stroke:#231F20;stroke-linecap:round;stroke-miterlimit:10;}
	.st5{fill:#FFFFFF;stroke:#000000;stroke-miterlimit:10;}
</style>
<path class="st0" d="M122.5,150.5l6.5,45h163.5l15-45.5c-24.2,0.1-48.4,0.1-72.6,0.2C197.5,150.3,160,150.4,122.5,150.5z"/>
<polygon class="st1" points="135.5,140.5 135.5,150 189,150 198.5,140.5 "/>
<polygon class="st1" points="143.5,126.5 143.5,140.5 188.5,140.5 198.5,119.5 156.3,124.9 "/>
<polygon class="st2" points="166.5,97.5 155.5,97.5 155.5,124 166.5,122.5 "/>
<polygon class="st3" points="155.5,77.5 161.5,77.5 158.5,97.5 155.5,97.5 "/>
<ellipse class="st4" cx="155.5" cy="174.7" rx="4.7" ry="6.5"/>
<ellipse class="st4" cx="177.5" cy="174.9" rx="4.7" ry="6.5"/>
<ellipse class="st4" cx="198.5" cy="174.9" rx="4.7" ry="6.5"/>
<ellipse class="st4" cx="217.5" cy="174.9" rx="4.7" ry="6.5"/>
<ellipse class="st4" cx="236.5" cy="174.9" rx="4.7" ry="6.5"/>
<path class="st5" d="M210.5-14.5"/>
</svg>
