<?xml version="1.0" encoding="utf-8"?>
<!-- Generator: Adobe Illustrator 24.0.0, SVG Export Plug-In . SVG Version: 6.00 Build 0)  -->
<svg version="1.1" id="Layer_1" xmlns="http://www.w3.org/2000/svg" xmlns:xlink="http://www.w3.org/1999/xlink" x="0px" y="0px"
	 viewBox="0 0 512 512" style="enable-background:new 0 0 512 512;" xml:space="preserve">
<style type="text/css">
	.st0{fill:#B3B3B3;stroke:#808080;stroke-miterlimit:10;}
	.st1{fill:#999999;stroke:#808080;stroke-miterlimit:10;}
	.st2{fill:#808080;stroke:#808080;stroke-miterlimit:10;}
	.st3{fill:#333333;stroke:#808080;stroke-miterlimit:10;}
</style>
<polygon class="st0" points="102.5,212.5 113.5,233.5 279.5,233.5 299.5,212.5 "/>
<polygon class="st1" points="143.5,203.5 143.5,212.5 202,212.5 201.5,203.5 "/>
<polygon class="st2" points="218.8,212.5 218.5,186.5 189.5,186.5 189.5,203.5 201.5,203.5 201.5,212.5 "/>
<polygon class="st3" points="113.5,212.5 103.5,203.5 108.5,199.5 123.3,212.5 "/>
<polygon class="st3" points="130.7,212.5 120.8,203.5 125.8,199.5 140.6,212.5 "/>
<polygon class="st3" points="150.7,203.5 140.8,194.5 145.8,190.5 160.6,203.5 "/>
<polygon class="st3" points="170.7,203.5 160.8,194.5 165.8,190.5 180.6,203.5 "/>
<polygon class="st3" points="231.6,212.5 241.6,203.5 236.6,199.5 221.8,212.5 "/>
<polygon class="st3" points="250.2,212.5 260.1,203.5 255.1,199.5 240.3,212.5 "/>
<polygon class="st3" points="269.8,212.5 279.8,203.5 274.8,199.5 260,212.5 "/>
</svg>
